<?xml version="1.0" encoding="UTF-8"?><svg id="Layer_1" xmlns="http://www.w3.org/2000/svg" viewBox="0 0 4093.38 3704.75"><defs><style>.cls-1{fill:#5dcaf0;stroke-width:0px;}</style></defs><path class="cls-1" d="M536.23,3585.94c-28.97-70.16-36.79-150.48-29.68-224.84,2.68-35.02,11.16-70.9,18.64-105.19,85.44-383.69,173.82-767.48,295.67-1141.67,36.16-106.68,72.38-210.53,125.96-311.37,15.41-27.95,33.16-57.61,55.56-83.56,84.97-101.23,208.96-83.58,263.98,36.44,18.7,39.82,29.56,82.42,38.29,124.09,8.08,37.82,12.63,76.31,16.94,114.47,10.63,106.56,18.43,215.03,26.4,321.65,9.85,139.42,20.01,286.41,28.15,426.04,13.94,205.21,20.86,414.66,67.45,614.6,7.08,27.86,16.23,56.94,28.08,81.26,6.09,11.81,10.92,20.14,16.31,25.76.65.7,1.2,1.39,1.93,1.95.16.14.25.45.48.42.08.03.12.11.13.25-.05-.13-.17-.26-.32-.28-.25.07-.42-.16-.62-.28-.27-.17-.59-.16-.91-.23-.62-.53-1.52-.28-2.12-.63-.17-.04-.35-.05-.52-.03-.18.02-.37.09-.44-.01-.25-.13-.55-.11-.8.03-.04.02-.01-.04-.02-.05,0-.04,0-.06,0-.06,0,0,0,.02,0,.06,0,.04-.02.13.15.03.24-.1.49-.14.74-.12.16-.03.19.11.47,0,.25-.09.49-.17.74-.24,16.24-3.74,37.22-18.74,53.46-31.4,11.25-9.14,23.02-19.46,33.51-29.59,45.58-43.53,88.94-96.78,128.26-147.41,8.06-12.48,29.23-44.45,36.74-56.04,13.3-22.31,29.86-48.25,42.45-70.86,5.17-9.55,26.79-47.03,31.01-55.68,8.47-16.16,21.02-40.43,29.5-56.69,80.22-161.42,144.19-332.48,195.28-505.44,139.41-470.82,199.04-964.02,256.72-1450.55,0,0,6.2-52.22,6.2-52.22l3.09-26c.58-4.34.86-8.66,1.25-12.98l1.1-12.97,8.83-103.8,167.57,25.15c.16-.64.37-1.75.32-1.46v-.04s-.06.36-.06.36l-.36,2.11-.93,5.85c-7.67,50.64-22.09,100.48-26.12,151.78-39.65,395.14-63.79,792.09-71.93,1189.07-4.84,299.12-4.45,600.48,26.3,897.86,12.06,103.47,26.41,212.02,61.43,308.83,5.42,14.58,11.41,28.03,17.56,39.61,7.94,14.16,13.64,23.34,22.42,30.89.81.57.44.37-.78-.08-1.17-.4-3.02-.55-3.77-.51-.8.03-.56.34,1.23-.13,14.82-3.74,39.77-22.91,53.14-35.63,33.94-31.35,68.57-74.54,97.16-114.49,54.17-74.4,100-156.32,148.99-234.49,5.6-8.4,32.79-52.97,37.8-60.57,12.5-21.1,28.99-38.66,49.58-52.71,0,0,6.77-4.33,6.77-4.33l3.38-2.16c1.13-.7,2.45-1.68,3.67-2.27l7.44-3.88,3.72-1.94c14.96-7.11,31.81-12.29,49.37-16.35,0,0,10.9-1.84,10.9-1.84l5.45-.92c.72-.15,2.19-.32,2.93-.35-17.79-10.89,26.31,14.62,20.88,12.1l-1.55.13-12.37.98-5.13-11.29-.65-1.4c-4.88-3.44,38.79,22.78,20.67,12.44l.64,1.41.47,1.31,1.82,5.21,3.65,10.43c4.72,17.03,8.68,34.94,9.48,51.12,0,4.43.42,11.98.33,16.45-.51,24.1-6.14,48.08-16.71,69.33-19.62,35.95-49.73,87.61-69.7,123.65-18.43,32.83-37.67,68.38-56.75,100.76-83.68,138.44-237.03,388.05-430.42,334.58-132.4-40.35-180.53-196.4-208.3-315.99-75.67-384.71-53.73-774.86-38.29-1162.09,21.36-399.73,56.03-800.43,97.43-1198.61,7.69-57.33,2.24-115.52,11.68-172.83,0,0,.57-3.18.57-3.18.16-.88.62-3.15,1.03-4.95l167.57,25.15c-.93,13.12-9.27,112.8-9.91,121.84-29.04,256.97-59.23,528.06-97.76,783.18-42.82,284.48-97.5,568.64-180.38,844.42-64.1,214.09-147.1,425.12-257.33,620.02-11.55,19.95-27.26,45.9-38.95,65.79-14.15,22.12-28.58,44.67-42.97,66.67-22.44,29.81-46.7,60.97-70.8,89.56-55.62,64.49-108.89,124.43-187.78,170.13,0,0-1.99,1.14-1.99,1.14l-2.15,1.11-4.31,2.2-8.66,4.34-2.17,1.07-2.34,1.03-4.73,2.03-9.49,3.96c-12.15,4.68-25.06,8.44-37.86,11.2-12.47,2.57-25.51,3.78-38.28,4.05-39.61.48-79.19-12.56-110.93-36.28-94.08-69.25-125.2-220.75-144.98-328.39-33.02-196.8-43.52-394.85-55.95-592.94-14.85-219.27-29.04-441.57-47.65-660.32-3.13-32.45-6.56-65.52-11.54-97.59-3.97-22.65-8.9-46.88-14.88-68.01-4.92-16.34-8.75-29.63-16.15-42.34,2.85,3.12,5.26,5.52,11.89,9.43,5.17,2.98,13.12,6.21,21.87,7.44,12.51,1.85,27.42-.37,35.94-5.46,1.11-.61,1.83-1.08,2.29-1.4.45-.32.64-.48.65-.5.01-.03-.18.13-.48.38-5.59,5.39-9.96,10.77-15.26,18.29-7.31,10.32-14.96,22.85-22.36,36.15-47.18,87.35-81.84,183.16-115.58,278.91-126.96,374.2-223.32,760.35-318.37,1144.16-15.43,66.26-40.23,128.69-78.39,186.45-13.82,20.48-28.77,40.17-46.06,57.86,0,0-5.3,5.63-5.3,5.63l-1.34,1.41-1.49,1.37-2.98,2.74-5.99,5.46c-1,.91-2,1.82-3.15,2.68l-1.69,1.3c-.58.3-1.13,1.15-1.83.94h0Z"/><path class="cls-1" d="M852.52,1331.6c620.99-109.42,1517.92-101.5,2071.43,228.28,80.15,48.55,156.33,106.17,219.11,176.17,5.01,5.99,20.5,24,25.38,30.05,7.51,10.06,16.39,21.44,23.75,31.59,4.35,6.8,17.6,26.19,21.89,33.09,6.23,10.97,13.8,23.44,19.79,34.53,10.18,19.58,19.67,39.81,27.8,60.36,5.84,14.29,10.59,29.22,15.44,43.84,3.78,14.48,8.71,30.22,11.42,44.95,2.05,10.84,4.53,21.52,6,32.42.99,7.24,1.61,13.04,2.48,19.57,2.24,16.91,2.85,35.11,3.62,52.1.03,12.74-.43,26.12-.71,38.83-1.49,19.56-3.72,44.3-7.38,63.54-2.4,16.66-6.74,33.03-10.59,49.36-2.8,11.45-7.43,24.63-10.83,35.91-4.84,15.59-11.72,31.1-17.61,46.29-8.72,18.34-17.16,37.46-27.71,54.81-4.08,7.07-8.2,14.08-12.52,20.97.11-8.23.42-16.33.77-24.38,1.24-19.63,1.1-39.92,1.79-59.56-.3-10.51-.18-30.29-.41-40.88-.35-8.11-1.1-20.59-1.38-28.78-.33-11.34-1.86-22.76-2.68-34-.38-6.07-1.6-16.1-2.55-22.32,0,0-2.91-22.05-2.91-22.05l-4-21.72-1.88-10.77-2.54-10.63c-3.77-17.63-8.72-34.82-13.78-52.04-2.72-7.41-6.09-17.76-8.62-25.13-5.73-14.77-11.28-29.55-18.18-43.68-1.67-3.57-4.93-10.87-6.49-14.23-4.04-7.68-8.21-15.35-12.12-23.05-20.03-36.26-43.98-70.78-70.44-102.72-6.55-7.51-14.11-16.05-20.63-23.69-4.28-4.48-17.28-18.09-21.72-22.93,0,0-15.23-14.73-15.23-14.73-94.77-92.08-208.51-160.21-329-214.72-89.14-40.22-183.22-73.87-277.44-101.76-199.85-59.23-405.99-97.21-612.55-124.16-310.99-40.72-625.3-53.88-938.77-58.74h0Z"/></svg>